SplineFontDB: 3.2
FontName: SingScript.sg_components
FullName: SingScript.sg "components" module
FamilyName: SingScript.sg
Weight: Regular
Copyright: Copyright (c) 2025, 05524F.sg (Singapore)
Version: v2
ItalicAngle: 0
UnderlinePosition: -100
UnderlineWidth: 67
Ascent: 600
Descent: 300
InvalidEm: 0
sfntRevision: 0x00010000
LayerCount: 2
Layer: 0 0 "Back" 1
Layer: 1 0 "Fore" 0
XUID: [1021 768 647112374 32286]
StyleMap: 0x0040
FSType: 0
OS2Version: 4
OS2_WeightWidthSlopeOnly: 0
OS2_UseTypoMetrics: 1
CreationTime: 1740441635
ModificationTime: 1753481628
PfmFamily: 65
TTFWeight: 400
TTFWidth: 5
LineGap: 81
VLineGap: 0
Panose: 3 0 5 3 0 0 0 0 0 0
OS2TypoAscent: 600
OS2TypoAOffset: 0
OS2TypoDescent: -300
OS2TypoDOffset: 0
OS2TypoLinegap: 81
OS2WinAscent: 590
OS2WinAOffset: 0
OS2WinDescent: 233
OS2WinDOffset: 0
HheadAscent: 590
HheadAOffset: 0
HheadDescent: -233
HheadDOffset: 0
OS2SubXSize: 585
OS2SubYSize: 630
OS2SubXOff: 0
OS2SubYOff: 126
OS2SupXSize: 585
OS2SupYSize: 630
OS2SupXOff: 0
OS2SupYOff: 432
OS2StrikeYSize: 44
OS2StrikeYPos: 232
OS2CapHeight: 467
OS2XHeight: 300
OS2Vendor: '5524'
OS2CodePages: 00000001.00000000
OS2UnicodeRanges: 80000003.10000000.00000000.00000000
MarkAttachClasses: 1
DEI: 91125
LangName: 1033 "" "" "" "" "" "Version v2"
Encoding: Custom
UnicodeInterp: none
NameList: AGL For New Fonts
DisplaySize: -48
AntiAlias: 1
FitToEm: 0
WidthSeparation: 50
WinInfo: 0 27 3
BeginPrivate: 6
BlueValues 21 [0 0 300 300 467 467]
OtherBlues 11 [-233 -233]
StdHW 4 [67]
StdVW 4 [67]
StemSnapH 33 [52 59 63 67 73 78 86 93 159 167]
StemSnapV 4 [67]
EndPrivate
Grid
0 -200 m 24
 351 -200 549 -200 900 -200 c 1048
0 -233 m 24
 351 -233 549 -233 900 -233 c 1048
250 211 m 24
 289 211 311 211 350 211 c 1048
250 100 m 24
 289 100 311 100 350 100 c 1048
250 -100 m 24
 289 -100 311 -100 350 -100 c 1048
250 -255 m 24
 289 -255 311 -255 350 -255 c 1048
100 511 m 24
 139 511 161 511 200 511 c 1048
100 400 m 24
 139 400 161 400 200 400 c 1048
100 200 m 24

StartChar: NameMe.0
Encoding: 0 -1 0
Width: 817
Flags: HW
LayerCount: 2
Fore
SplineSet
58 116 m 2
 40 116 25 132 25 150 c 0
 25 168 40 184 58 184 c 2
 758 184 l 2
 776 184 792 168 792 150 c 0
 792 132 776 116 758 116 c 2
 58 116 l 2
EndSplineSet
EndChar

StartChar: NameMe.1
Encoding: 1 -1 1
Width: 118
Flags: HW
LayerCount: 2
Fore
SplineSet
93 -200 m 2
 93 -218 77 -234 59 -234 c 0
 41 -234 25 -218 25 -200 c 2
 25 500 l 2
 25 518 41 534 59 534 c 0
 77 534 93 518 93 500 c 2
 93 -200 l 2
EndSplineSet
EndChar

StartChar: NameMe.2
Encoding: 2 -1 2
Width: 612
Flags: HW
LayerCount: 2
Fore
SplineSet
81.75 -121 m 2
 68.75 -134 47.75 -134 34.75 -121 c 0
 21.75 -108 21.75 -87 34.75 -74 c 2
 529.75 421 l 2
 542.75 434 563.75 434 576.75 421 c 0
 589.75 408 589.75 387 576.75 374 c 2
 81.75 -121 l 2
EndSplineSet
EndChar

StartChar: NameMe.3
Encoding: 3 -1 3
Width: 612
Flags: HW
LayerCount: 2
Fore
SplineSet
34.75 374 m 2
 21.75 387 21.75 408 34.75 421 c 0
 47.75 434 68.75 434 81.75 421 c 2
 576.75 -74 l 2
 589.75 -87 589.75 -108 576.75 -121 c 0
 563.75 -134 542.75 -134 529.75 -121 c 2
 34.75 374 l 2
EndSplineSet
EndChar

StartChar: NameMe.4
Encoding: 4 -1 4
Width: 276
Flags: HW
LayerCount: 2
Fore
SplineSet
218 306 m 4
 236 306 251 290 251 272 c 4
 251 261 246 251 238 245 c 4
 114 150 114 150 114 150 c 5
 238 55 l 4
 246 49 251 39 251 28 c 4
 251 10 236 -6 218 -6 c 4
 210 -6 203 -3 197 1 c 4
 38 123 38 123 38 123 c 6
 34 126 25 135 25 150 c 4
 25 160 29 170 38 177 c 6
 197 299 l 6
 203 303 210 306 218 306 c 4
EndSplineSet
EndChar

StartChar: NameMe.5
Encoding: 5 -1 5
Width: 276
Flags: HW
LayerCount: 2
Fore
SplineSet
58 306 m 4
 66 306 73 303 79 299 c 6
 238 177 l 6
 247 170 251 160 251 150 c 4
 251 135 242 126 238 123 c 6
 238 123 238 123 79 1 c 4
 73 -3 66 -6 58 -6 c 4
 40 -6 25 10 25 28 c 4
 25 39 30 49 38 55 c 4
 163 150 l 5
 163 150 162 150 38 245 c 4
 30 251 25 261 25 272 c 4
 25 290 40 306 58 306 c 4
EndSplineSet
EndChar

StartChar: NameMe.6
Encoding: 6 -1 6
Width: 361
Flags: HW
LayerCount: 2
Fore
SplineSet
25 207 m 4
 25 215 28 222 32 228 c 6
 154 387 l 6
 161 396 171 400 181 400 c 4
 196 400 204 391 207 387 c 6
 207 387 207 387 329 228 c 4
 333 222 336 215 336 207 c 4
 336 189 321 174 303 174 c 4
 292 174 282 179 276 187 c 4
 181 311 l 5
 181 311 180 311 85 187 c 4
 79 179 69 174 58 174 c 4
 40 174 25 189 25 207 c 4
EndSplineSet
EndChar

StartChar: NameMe.7
Encoding: 7 -1 7
Width: 361
Flags: HW
LayerCount: 2
Fore
SplineSet
25 93 m 4
 25 111 40 126 58 126 c 4
 69 126 79 121 85 113 c 4
 180 -11 181 -11 181 -11 c 5
 276 113 l 4
 282 121 292 126 303 126 c 4
 321 126 336 111 336 93 c 4
 336 85 333 78 329 72 c 4
 207 -87 207 -87 207 -87 c 6
 204 -91 196 -100 181 -100 c 4
 171 -100 161 -96 154 -87 c 6
 32 72 l 6
 28 78 25 85 25 93 c 4
EndSplineSet
EndChar

StartChar: NameMe.8
Encoding: 8 -1 8
Width: 316
Flags: HW
LayerCount: 2
Fore
SplineSet
61.15234375 210 m 4
 68.15234375 217 76.15234375 220 85.15234375 220 c 0
 94.15234375 220 101.15234375 217 108.15234375 210 c 4
 115.15234375 203 118.15234375 195 118.15234375 186 c 0
 118.15234375 184 118.15234375 185 97.15234375 27 c 5
 253.15234375 47 l 4
 254.15234375 47 256.15234375 47 257.15234375 47 c 0
 266.15234375 47 274.15234375 45 281.15234375 38 c 4
 288.15234375 31 291.15234375 23 291.15234375 14 c 0
 291.15234375 5 288.15234375 -3 281.15234375 -10 c 4
 276.15234375 -15 269.15234375 -18 262.15234375 -19 c 4
 63.15234375 -45 63.15234375 -46 63.15234375 -46 c 6
 62.15234375 -46 61.15234375 -46 59.15234375 -46 c 0
 53.15234375 -46 43.15234375 -44 35.15234375 -36 c 4
 28.15234375 -29 24.15234375 -19 25.15234375 -8 c 6
 51.15234375 191 l 6
 52.15234375 198 56.15234375 205 61.15234375 210 c 4
EndSplineSet
EndChar

StartChar: NameMe.9
Encoding: 9 -1 9
Width: 316
Flags: HW
LayerCount: 2
Fore
SplineSet
35 -10 m 4
 28 -3 25 5 25 14 c 0
 25 23 28 31 35 38 c 4
 42 45 50 47 59 47 c 0
 60 47 62 47 63 47 c 4
 218 27 218 27 218 27 c 5
 198 182 l 4
 197 192 199 202 207 210 c 4
 214 217 222 220 231 220 c 0
 240 220 248 217 255 210 c 4
 260 205 263 198 264 191 c 4
 290 -8 290 -8 290 -8 c 6
 291 -12 292 -25 281 -36 c 4
 275 -42 266 -46 257 -46 c 0
 256 -46 254 -46 253 -46 c 6
 54 -19 l 6
 47 -18 40 -15 35 -10 c 4
EndSplineSet
EndChar

StartChar: NameMe.10
Encoding: 10 -1 10
Width: 315
Flags: HW
LayerCount: 2
Fore
SplineSet
255 90 m 4
 248 83 240 80 231 80 c 0
 222 80 214 83 207 90 c 4
 200 97 198 105 198 114 c 0
 198 116 197 115 218 273 c 5
 63 253 l 4
 62 253 59 253 58 253 c 0
 49 253 42 255 35 262 c 4
 28 269 25 277 25 286 c 0
 25 295 28 303 35 310 c 4
 40 315 47 318 54 319 c 4
 253 345 253 346 253 346 c 6
 254 346 255 346 257 346 c 0
 263 346 273 344 281 336 c 4
 288 329 291 319 290 308 c 6
 264 109 l 6
 263 102 260 95 255 90 c 4
EndSplineSet
EndChar

StartChar: NameMe.11
Encoding: 11 -1 11
Width: 316
Flags: HW
LayerCount: 2
Fore
SplineSet
281.409179688 310 m 4
 288.409179688 303 291.409179688 295 291.409179688 286 c 0
 291.409179688 277 288.409179688 269 281.409179688 262 c 4
 274.409179688 255 266.409179688 253 257.409179688 253 c 0
 256.409179688 253 254.409179688 253 253.409179688 253 c 4
 98.4091796875 273 97.4091796875 273 97.4091796875 273 c 5
 118.409179688 118 l 4
 119.409179688 108 116.409179688 98 108.409179688 90 c 4
 101.409179688 83 94.4091796875 80 85.4091796875 80 c 0
 76.4091796875 80 68.4091796875 83 61.4091796875 90 c 4
 56.4091796875 95 52.4091796875 102 51.4091796875 109 c 4
 25.4091796875 308 25.4091796875 308 25.4091796875 308 c 6
 24.4091796875 312 24.4091796875 325 35.4091796875 336 c 4
 41.4091796875 342 49.4091796875 346 58.4091796875 346 c 0
 59.4091796875 346 62.4091796875 346 63.4091796875 346 c 6
 262.409179688 319 l 6
 269.409179688 318 276.409179688 315 281.409179688 310 c 4
EndSplineSet
EndChar

StartChar: NameMe.12
Encoding: 12 -1 12
Width: 267
Flags: HW
LayerCount: 2
Fore
SplineSet
59 -34 m 4
 41 -34 25 -18 25 -0 c 4
 25 5 27 10 29 15 c 4
 30 18 177 312 179 315 c 4
 185 326 196 334 209 334 c 4
 227 334 242 318 242 300 c 4
 242 295 240 290 238 285 c 4
 237 282 90 -12 88 -15 c 4
 83 -26 72 -34 59 -34 c 4
EndSplineSet
EndChar

StartChar: NameMe.13
Encoding: 13 -1 13
Width: 350
Flags: HW
LayerCount: 2
Fore
SplineSet
58 -34 m 2
 40 -34 25 -18 25 0 c 0
 25 18 40 34 58 34 c 2
 292 34 l 2
 310 34 325 18 325 0 c 0
 325 -18 310 -34 292 -34 c 2
 58 -34 l 2
EndSplineSet
EndChar

StartChar: NameMe.14
Encoding: 14 -1 14
Width: 117
Flags: HW
LayerCount: 2
Fore
SplineSet
92 34 m 6
 92 16 76 0 58 0 c 4
 40 0 25 16 25 34 c 6
 25 266 l 6
 25 284 40 300 58 300 c 4
 76 300 92 284 92 266 c 6
 92 34 l 6
EndSplineSet
EndChar

StartChar: NameMe.15
Encoding: 15 -1 15
Width: 550
Flags: HW
LayerCount: 2
Fore
SplineSet
25 367 m 2
 25 385 40 400 59 400 c 2
 492 400 l 2
 510 400 525 385 525 367 c 0
 525 349 510 334 492 334 c 2
 92 334 l 1
 92 -67 l 2
 92 -85 76 -100 58 -100 c 0
 40 -100 25 -85 25 -67 c 2
 25 367 l 2
EndSplineSet
EndChar

StartChar: NameMe.16
Encoding: 16 -1 16
Width: 551
Flags: HW
LayerCount: 2
Fore
SplineSet
58 -100 m 6
 40 -100 25 -85 25 -66 c 6
 25 366 l 6
 25 384 40 400 58 400 c 4
 76 400 92 384 92 366 c 6
 92 -33 l 5
 492 -33 l 6
 510 -33 526 -48 526 -66 c 4
 526 -84 510 -100 492 -100 c 6
 58 -100 l 6
EndSplineSet
EndChar

StartChar: NameMe.17
Encoding: 17 -1 17
Width: 550
Flags: HW
LayerCount: 2
Fore
SplineSet
525 -67 m 6
 525 -85 510 -100 491 -100 c 6
 58 -100 l 6
 40 -100 25 -85 25 -67 c 4
 25 -49 40 -34 58 -34 c 6
 458 -34 l 5
 458 367 l 6
 458 385 474 400 492 400 c 4
 510 400 525 385 525 367 c 6
 525 -67 l 6
EndSplineSet
EndChar

StartChar: NameMe.18
Encoding: 18 -1 18
Width: 551
Flags: HW
LayerCount: 2
Fore
SplineSet
492 400 m 6
 510 400 526 385 526 366 c 6
 526 -66 l 6
 526 -84 510 -100 492 -100 c 4
 474 -100 459 -84 459 -66 c 6
 459 333 l 5
 58 333 l 6
 40 333 25 348 25 366 c 4
 25 384 40 400 58 400 c 6
 492 400 l 6
EndSplineSet
EndChar

StartChar: NameMe.19
Encoding: 19 -1 19
Width: 550
Flags: HW
LayerCount: 2
Fore
SplineSet
92 42 m 0
 92 24 76 8 58 8 c 0
 40 8 25 24 25 42 c 0
 25 182 138 292 276 292 c 0
 413 292 525 182 525 42 c 0
 525 24 510 8 492 8 c 0
 474 8 458 24 458 42 c 0
 458 144 377 224 276 224 c 0
 174 224 92 144 92 42 c 0
EndSplineSet
EndChar

StartChar: NameMe.20
Encoding: 20 -1 20
Width: 550
Flags: HW
LayerCount: 2
Fore
SplineSet
129 337 m 0
 147 337 162 321 162 303 c 0
 162 290 155 280 145 274 c 0
 145 273 125 253 109 219 c 0
 99 198 92 174 92 150 c 0
 92 47 174 -34 276 -34 c 0
 377 -34 458 47 458 150 c 0
 458 183 452 207 445 225 c 0
 436 248 425 262 415 274 c 0
 406 285 401 291 401 303 c 0
 401 321 416 336 434 336 c 0
 445 336 455 331 461 323 c 0
 462 322 465 319 467 316 c 0
 487 291 525 244 525 150 c 0
 525 11 413 -100 276 -100 c 0
 138 -100 25 11 25 150 c 0
 25 201 44 246 64 278 c 0
 72 290 92 321 112 332 c 0
 117 335 123 337 129 337 c 0
EndSplineSet
EndChar

StartChar: NameMe.21
Encoding: 21 -1 21
Width: 276
Flags: HW
LayerCount: 2
Fore
SplineSet
79 63 m 6
 73 58 66 56 59 56 c 0
 49 56 39 60 32 69 c 4
 27 75 25 82 25 89 c 0
 25 99 29 109 38 116 c 6
 197 237 l 6
 203 242 210 244 217 244 c 0
 227 244 237 240 244 231 c 4
 249 225 251 218 251 211 c 0
 251 201 247 191 238 184 c 6
 79 63 l 6
EndSplineSet
EndChar

StartChar: NameMe.22
Encoding: 22 -1 22
Width: 276
Flags: HW
LayerCount: 2
Fore
SplineSet
38 184 m 2
 29 191 25 201 25 211 c 0
 25 218 27 225 32 231 c 0
 39 240 49 244 59 244 c 0
 66 244 73 242 79 237 c 2
 238 116 l 2
 247 109 251 99 251 89 c 0
 251 82 249 75 244 69 c 0
 237 60 227 56 217 56 c 0
 210 56 203 58 197 63 c 2
 38 184 l 2
EndSplineSet
EndChar

StartChar: NameMe.23
Encoding: 23 -1 23
Width: 239
Flags: HW
LayerCount: 2
Fore
SplineSet
207 91 m 6
 212 85 214 78 214 71 c 0
 214 61 210 51 201 44 c 4
 195 39 187 37 180 37 c 0
 170 37 161 41 154 50 c 6
 32 209 l 6
 27 215 25 222 25 229 c 0
 25 239 29 249 38 256 c 4
 44 261 51 263 58 263 c 0
 68 263 78 259 85 250 c 6
 207 91 l 6
EndSplineSet
EndChar

StartChar: NameMe.24
Encoding: 24 -1 24
Width: 239
Flags: HW
LayerCount: 2
Fore
SplineSet
85 50 m 2
 78 41 68 37 58 37 c 0
 51 37 44 39 38 44 c 0
 29 51 25 61 25 71 c 0
 25 78 27 85 32 91 c 2
 154 250 l 2
 161 259 170 263 180 263 c 0
 187 263 195 261 201 256 c 0
 210 249 214 239 214 229 c 0
 214 222 212 215 207 209 c 2
 85 50 l 2
EndSplineSet
EndChar

StartChar: NameMe.25
Encoding: 25 -1 25
Width: 817
Flags: HW
LayerCount: 2
Fore
SplineSet
58 -8 m 6
 40 -8 25 7 25 25 c 4
 25 43 40 58 58 58 c 6
 758 58 l 6
 776 58 792 43 792 25 c 4
 792 7 776 -8 758 -8 c 6
 58 -8 l 6
58 242 m 2
 40 242 25 257 25 275 c 0
 25 293 40 308 58 308 c 2
 758 308 l 2
 776 308 792 293 792 275 c 0
 792 257 776 242 758 242 c 2
 58 242 l 2
EndSplineSet
EndChar

StartChar: NameMe.26
Encoding: 26 -1 26
Width: 367
Flags: HW
LayerCount: 2
Fore
SplineSet
342 -200 m 6
 342 -218 326 -234 308 -234 c 4
 290 -234 275 -218 275 -200 c 6
 275 500 l 6
 275 518 290 534 308 534 c 4
 326 534 342 518 342 500 c 6
 342 -200 l 6
92 -200 m 2
 92 -218 76 -234 58 -234 c 0
 40 -234 25 -218 25 -200 c 2
 25 500 l 2
 25 518 40 534 58 534 c 0
 76 534 92 518 92 500 c 2
 92 -200 l 2
EndSplineSet
EndChar

StartChar: NameMe.27
Encoding: 27 -1 27
Width: 788
Flags: HW
LayerCount: 2
Fore
SplineSet
258.75 -210 m 6
 245.75 -223 224.75 -223 211.75 -210 c 4
 198.75 -197 198.75 -175 211.75 -162 c 6
 706.75 333 l 6
 719.75 346 740.75 346 753.75 333 c 4
 766.75 320 766.75 298 753.75 285 c 6
 258.75 -210 l 6
81.75 -33 m 2
 68.75 -46 47.75 -46 34.75 -33 c 0
 21.75 -20 21.75 2 34.75 15 c 2
 529.75 510 l 2
 542.75 523 563.75 523 576.75 510 c 0
 589.75 497 589.75 475 576.75 462 c 2
 81.75 -33 l 2
EndSplineSet
EndChar

StartChar: NameMe.28
Encoding: 28 -1 28
Width: 788
Flags: HW
LayerCount: 2
Fore
SplineSet
34.75 285 m 6
 21.75 298 21.75 320 34.75 333 c 4
 47.75 346 68.75 346 81.75 333 c 6
 576.75 -162 l 6
 589.75 -175 589.75 -197 576.75 -210 c 4
 563.75 -223 542.75 -223 529.75 -210 c 6
 34.75 285 l 6
211.75 462 m 2
 198.75 475 198.75 497 211.75 510 c 0
 224.75 523 245.75 523 258.75 510 c 2
 753.75 15 l 2
 766.75 2 766.75 -20 753.75 -33 c 0
 740.75 -46 719.75 -46 706.75 -33 c 2
 211.75 462 l 2
EndSplineSet
EndChar

StartChar: NameMe.29
Encoding: 29 -1 29
Width: 817
Flags: HW
LayerCount: 2
Fore
SplineSet
58 42 m 6
 40 42 25 57 25 75 c 4
 25 93 40 108 58 108 c 6
 758 108 l 6
 776 108 792 93 792 75 c 4
 792 57 776 42 758 42 c 6
 58 42 l 6
58 192 m 2
 40 192 25 207 25 225 c 0
 25 243 40 258 58 258 c 2
 758 258 l 2
 776 258 792 243 792 225 c 0
 792 207 776 192 758 192 c 2
 58 192 l 2
EndSplineSet
EndChar

StartChar: NameMe.30
Encoding: 30 -1 30
Width: 267
Flags: HW
LayerCount: 2
Fore
SplineSet
242 -200 m 6
 242 -218 226 -234 208 -234 c 4
 190 -234 175 -218 175 -200 c 6
 175 500 l 6
 175 518 190 534 208 534 c 4
 226 534 242 518 242 500 c 6
 242 -200 l 6
92 -200 m 2
 92 -218 76 -234 58 -234 c 0
 40 -234 25 -218 25 -200 c 2
 25 500 l 2
 25 518 40 534 58 534 c 0
 76 534 92 518 92 500 c 2
 92 -200 l 2
EndSplineSet
EndChar

StartChar: NameMe.31
Encoding: 31 -1 31
Width: 718
Flags: HW
LayerCount: 2
Fore
SplineSet
188.75 -174 m 6
 175.75 -187 153.75 -187 140.75 -174 c 4
 127.75 -161 127.75 -140 140.75 -127 c 6
 635.75 368 l 6
 648.75 381 670.75 381 683.75 368 c 4
 696.75 355 696.75 334 683.75 321 c 6
 188.75 -174 l 6
82.75 -68 m 2
 69.75 -81 47.75 -81 34.75 -68 c 0
 21.75 -55 21.75 -34 34.75 -21 c 2
 529.75 474 l 2
 542.75 487 564.75 487 577.75 474 c 0
 590.75 461 590.75 440 577.75 427 c 2
 82.75 -68 l 2
EndSplineSet
EndChar

StartChar: NameMe.32
Encoding: 32 -1 32
Width: 718
Flags: HW
LayerCount: 2
Fore
SplineSet
34.75 321 m 6
 21.75 334 21.75 355 34.75 368 c 4
 47.75 381 69.75 381 82.75 368 c 6
 577.75 -127 l 6
 590.75 -140 590.75 -161 577.75 -174 c 4
 564.75 -187 542.75 -187 529.75 -174 c 6
 34.75 321 l 6
140.75 427 m 2
 127.75 440 127.75 461 140.75 474 c 0
 153.75 487 175.75 487 188.75 474 c 2
 683.75 -21 l 2
 696.75 -34 696.75 -55 683.75 -68 c 0
 670.75 -81 648.75 -81 635.75 -68 c 2
 140.75 427 l 2
EndSplineSet
EndChar

StartChar: NameMe.33
Encoding: 33 -1 33
Width: 289
Flags: HW
LayerCount: 2
Fore
SplineSet
231 429 m 0
 249 429 264 414 264 396 c 0
 264 389 262 382 258 377 c 2
 99 150 l 1
 258 -77 l 2
 262 -82 264 -89 264 -96 c 0
 264 -114 249 -129 231 -129 c 0
 220 -129 209 -124 203 -115 c 0
 31 131 31 131 31 131 c 2
 30 133 25 140 25 150 c 0
 25 157 27 163 31 169 c 2
 203 415 l 2
 209 424 220 429 231 429 c 0
EndSplineSet
EndChar

StartChar: NameMe.34
Encoding: 34 -1 34
Width: 289
Flags: HW
LayerCount: 2
Fore
SplineSet
59 -129 m 0
 41 -129 25 -114 25 -96 c 0
 25 -89 27 -82 31 -77 c 2
 190 150 l 1
 31 377 l 2
 27 382 25 389 25 396 c 0
 25 414 41 429 59 429 c 0
 70 429 80 424 86 415 c 0
 258 169 258 169 258 169 c 2
 259 167 264 160 264 150 c 0
 264 143 262 137 258 131 c 2
 86 -115 l 2
 80 -124 70 -129 59 -129 c 0
EndSplineSet
EndChar

StartChar: NameMe.35
Encoding: 35 -1 35
Width: 609
Flags: HW
LayerCount: 2
Fore
SplineSet
584 64 m 0
 584 46 569 30 551 30 c 0
 544 30 537 33 532 37 c 2
 305 195 l 1
 78 37 l 2
 73 33 66 30 59 30 c 0
 41 30 25 46 25 64 c 0
 25 75 31 85 40 91 c 0
 286 263 286 263 286 263 c 2
 288 264 295 270 305 270 c 0
 312 270 318 267 324 263 c 2
 570 91 l 2
 579 85 584 75 584 64 c 0
EndSplineSet
EndChar

StartChar: NameMe.36
Encoding: 36 -1 36
Width: 609
Flags: HW
LayerCount: 2
Fore
SplineSet
25 236 m 0
 25 254 41 270 59 270 c 0
 66 270 73 267 78 263 c 2
 305 105 l 1
 532 263 l 2
 537 267 544 270 551 270 c 0
 569 270 584 254 584 236 c 0
 584 225 579 215 570 209 c 0
 324 37 324 37 324 37 c 2
 322 36 315 30 305 30 c 0
 298 30 292 33 286 37 c 2
 40 209 l 2
 31 215 25 225 25 236 c 0
EndSplineSet
EndChar

StartChar: NameMe.37
Encoding: 37 -1 37
Width: 464
Flags: HW
LayerCount: 2
Fore
SplineSet
34.599609375 408 m 0
 47.599609375 421 69.599609375 421 82.599609375 408 c 0
 87.599609375 403 90.599609375 398 91.599609375 391 c 2
 139.599609375 118 l 1
 412.599609375 70 l 2
 419.599609375 69 424.599609375 66 429.599609375 61 c 0
 442.599609375 48 442.599609375 26 429.599609375 13 c 0
 421.599609375 5 410.599609375 2 400.599609375 4 c 0
 104.599609375 56 104.599609375 56 104.599609375 56 c 2
 102.599609375 56 93.599609375 58 86.599609375 65 c 0
 81.599609375 70 78.599609375 76 77.599609375 83 c 2
 25.599609375 379 l 2
 23.599609375 389 26.599609375 400 34.599609375 408 c 0
EndSplineSet
EndChar

StartChar: NameMe.38
Encoding: 38 -1 38
Width: 464
Flags: HW
LayerCount: 2
Fore
SplineSet
34.75 13 m 0
 21.75 26 21.75 48 34.75 61 c 0
 39.75 66 44.75 69 51.75 70 c 2
 324.75 118 l 1
 372.75 391 l 2
 373.75 398 376.75 403 381.75 408 c 0
 394.75 421 416.75 421 429.75 408 c 0
 437.75 400 440.75 389 438.75 379 c 0
 386.75 83 386.75 83 386.75 83 c 2
 386.75 81 384.75 73 377.75 66 c 0
 372.75 61 366.75 57 359.75 56 c 2
 63.75 4 l 2
 53.75 2 42.75 5 34.75 13 c 0
EndSplineSet
EndChar

StartChar: NameMe.39
Encoding: 39 -1 39
Width: 464
Flags: HW
LayerCount: 2
Fore
SplineSet
429.75 -108 m 0
 416.75 -121 394.75 -121 381.75 -108 c 0
 376.75 -103 373.75 -98 372.75 -91 c 2
 324.75 182 l 1
 51.75 230 l 2
 44.75 231 39.75 234 34.75 239 c 0
 21.75 252 21.75 274 34.75 287 c 0
 42.75 295 53.75 298 63.75 296 c 0
 359.75 244 359.75 244 359.75 244 c 2
 361.75 244 369.75 242 376.75 235 c 0
 381.75 230 385.75 224 386.75 217 c 2
 438.75 -79 l 2
 440.75 -89 437.75 -100 429.75 -108 c 0
EndSplineSet
EndChar

StartChar: NameMe.40
Encoding: 40 -1 40
Width: 464
Flags: HW
LayerCount: 2
Fore
SplineSet
429.599609375 287 m 0
 442.599609375 274 442.599609375 252 429.599609375 239 c 0
 424.599609375 234 419.599609375 231 412.599609375 230 c 2
 139.599609375 182 l 1
 91.599609375 -91 l 2
 90.599609375 -98 87.599609375 -103 82.599609375 -108 c 0
 69.599609375 -121 47.599609375 -121 34.599609375 -108 c 0
 26.599609375 -100 23.599609375 -89 25.599609375 -79 c 0
 77.599609375 217 77.599609375 217 77.599609375 217 c 2
 77.599609375 219 79.599609375 227 86.599609375 234 c 0
 91.599609375 239 97.599609375 243 104.599609375 244 c 2
 400.599609375 296 l 2
 410.599609375 298 421.599609375 295 429.599609375 287 c 0
EndSplineSet
EndChar

StartChar: NameMe.41
Encoding: 41 -1 41
Width: 487
Flags: HW
LayerCount: 2
Fore
SplineSet
25 -28 m 0
 25 -10 41 5 59 5 c 0
 72 5 82 -2 88 -12 c 0
 89 -12 108 -32 142 -48 c 0
 163 -58 188 -65 212 -65 c 0
 315 -65 395 17 395 119 c 0
 395 220 315 301 212 301 c 0
 179 301 154 295 136 288 c 0
 113 279 100 268 88 258 c 0
 77 249 71 244 59 244 c 0
 41 244 25 260 25 278 c 0
 25 289 30 298 38 304 c 0
 39 305 42 308 45 310 c 0
 70 330 118 368 212 368 c 0
 351 368 462 256 462 119 c 0
 462 -19 351 -132 212 -132 c 0
 161 -132 116 -113 84 -93 c 0
 72 -85 40 -65 29 -45 c 0
 26 -40 25 -34 25 -28 c 0
EndSplineSet
EndChar

StartChar: NameMe.42
Encoding: 42 -1 42
Width: 487
Flags: HW
LayerCount: 2
Fore
SplineSet
462 264 m 0
 462 246 447 231 429 231 c 0
 416 231 405 238 399 248 c 0
 398 248 379 268 345 284 c 0
 324 294 300 301 276 301 c 0
 173 301 92 220 92 118 c 0
 92 17 173 -65 276 -65 c 0
 309 -65 333 -59 351 -52 c 0
 374 -43 387 -32 399 -22 c 0
 410 -13 416 -8 428 -8 c 0
 446 -8 462 -23 462 -41 c 0
 462 -52 457 -62 449 -68 c 0
 448 -69 445 -72 442 -74 c 0
 417 -94 370 -132 276 -132 c 0
 137 -132 25 -19 25 118 c 0
 25 256 137 368 276 368 c 0
 327 368 372 349 404 329 c 0
 416 321 447 301 458 281 c 0
 461 276 462 270 462 264 c 0
EndSplineSet
EndChar

StartChar: NameMe.43
Encoding: 43 -1 43
Width: 900
Flags: HW
LayerCount: 2
Fore
SplineSet
58 116 m 2
 40 116 25 132 25 150 c 0
 25 168 40 184 58 184 c 2
 842 184 l 2
 860 184 875 168 875 150 c 0
 875 132 860 116 842 116 c 2
 58 116 l 2
EndSplineSet
EndChar

StartChar: NameMe.44
Encoding: 44 -1 44
Width: 900
Flags: HW
LayerCount: 2
Fore
SplineSet
58 40 m 6
 40 40 25 56 25 74 c 4
 25 92 40 108 58 108 c 6
 842 108 l 6
 860 108 875 92 875 74 c 4
 875 56 860 40 842 40 c 6
 58 40 l 6
58 192 m 2
 40 192 25 207 25 225 c 0
 25 243 40 258 58 258 c 2
 842 258 l 2
 860 258 875 243 875 225 c 0
 875 207 860 192 842 192 c 2
 58 192 l 2
EndSplineSet
EndChar

StartChar: NameMe.45
Encoding: 45 -1 45
Width: 550
Flags: HW
LayerCount: 2
Fore
SplineSet
458 150 m 6
 458 252 377 333 276 333 c 4
 174 333 92 252 92 150 c 6
 92 -66 l 6
 92 -84 76 -100 58 -100 c 4
 40 -100 25 -84 25 -66 c 6
 25 150 l 6
 25 290 138 400 276 400 c 4
 413 400 525 290 525 150 c 6
 525 -66 l 6
 525 -84 510 -100 492 -100 c 4
 474 -100 458 -84 458 -66 c 6
 458 150 l 6
EndSplineSet
EndChar

StartChar: NameMe.46
Encoding: 46 -1 46
Width: 550
Flags: HW
LayerCount: 2
Fore
SplineSet
276 -33 m 6
 378 -33 458 49 458 150 c 4
 458 252 378 333 276 333 c 6
 58 333 l 6
 40 333 25 348 25 366 c 4
 25 384 40 400 58 400 c 6
 276 400 l 6
 416 400 525 288 525 150 c 4
 525 13 416 -100 276 -100 c 6
 58 -100 l 6
 40 -100 25 -84 25 -66 c 4
 25 -48 40 -33 58 -33 c 6
 276 -33 l 6
EndSplineSet
EndChar

StartChar: NameMe.47
Encoding: 47 -1 47
Width: 550
Flags: HW
LayerCount: 2
Fore
SplineSet
274 333 m 6
 172 333 92 251 92 150 c 4
 92 48 172 -33 274 -33 c 6
 492 -33 l 6
 510 -33 525 -48 525 -66 c 4
 525 -84 510 -100 492 -100 c 6
 274 -100 l 6
 134 -100 25 12 25 150 c 4
 25 287 134 400 274 400 c 6
 492 400 l 6
 510 400 525 384 525 366 c 4
 525 348 510 333 492 333 c 6
 274 333 l 6
EndSplineSet
EndChar

StartChar: NameMe.48
Encoding: 48 -1 48
Width: 550
Flags: HW
LayerCount: 2
Fore
SplineSet
92 150 m 6
 92 48 173 -33 274 -33 c 4
 376 -33 458 48 458 150 c 6
 458 366 l 6
 458 384 474 400 492 400 c 4
 510 400 525 384 525 366 c 6
 525 150 l 6
 525 10 412 -100 274 -100 c 4
 137 -100 25 10 25 150 c 6
 25 366 l 6
 25 384 40 400 58 400 c 4
 76 400 92 384 92 366 c 6
 92 150 l 6
EndSplineSet
EndChar

StartChar: NameMe.49
Encoding: 49 -1 49
Width: 343
Flags: HW
LayerCount: 2
Fore
SplineSet
27.5322265625 27 m 4
 20.5322265625 44 28.5322265625 64 45.5322265625 71 c 4
 55.5322265625 75 66.5322265625 74 75.5322265625 69 c 4
 210.532226562 -9 211.532226562 -9 211.532226562 -9 c 5
 251.532226562 142 l 4
 253.532226562 152 261.532226562 160 271.532226562 164 c 4
 288.532226562 171 308.532226562 163 315.532226562 146 c 4
 318.532226562 139 317.532226562 131 316.532226562 124 c 4
 264.532226562 -70 264.532226562 -69 264.532226562 -69 c 6
 263.532226562 -74 259.532226562 -85 245.532226562 -91 c 4
 236.532226562 -95 225.532226562 -96 215.532226562 -90 c 6
 42.5322265625 11 l 6
 36.5322265625 15 30.5322265625 20 27.5322265625 27 c 4
EndSplineSet
EndChar

StartChar: NameMe.50
Encoding: 50 -1 50
Width: 343
Flags: HW
LayerCount: 2
Fore
SplineSet
27 146 m 4
 34 163 54 171 71 164 c 4
 81 160 89 152 91 142 c 4
 131 -9 132 -9 132 -9 c 5
 267 69 l 4
 276 74 287 75 297 71 c 4
 314 64 322 44 315 27 c 4
 312 20 306 15 300 11 c 4
 126 -89 127 -90 127 -90 c 6
 123 -93 112 -98 98 -92 c 4
 89 -88 81 -80 78 -69 c 6
 26 124 l 6
 25 131 24 139 27 146 c 4
EndSplineSet
EndChar

StartChar: NameMe.51
Encoding: 51 -1 51
Width: 352
Flags: HW
LayerCount: 2
Fore
SplineSet
26.08984375 169 m 4
 24.08984375 177 25.08984375 185 27.08984375 192 c 6
 104.08984375 377 l 6
 108.08984375 388 117.08984375 393 127.08984375 396 c 4
 141.08984375 400 151.08984375 393 155.08984375 390 c 6
 155.08984375 390 155.08984375 390 314.08984375 268 c 4
 319.08984375 263 324.08984375 258 326.08984375 250 c 4
 331.08984375 233 320.08984375 215 303.08984375 210 c 4
 292.08984375 207 282.08984375 209 274.08984375 215 c 4
 150.08984375 310 l 5
 150.08984375 310 149.08984375 310 89.08984375 166 c 4
 85.08984375 157 77.08984375 149 66.08984375 146 c 4
 49.08984375 141 31.08984375 152 26.08984375 169 c 4
EndSplineSet
EndChar

StartChar: NameMe.52
Encoding: 52 -1 52
Width: 352
Flags: HW
LayerCount: 2
Fore
SplineSet
26.212890625 250 m 4
 28.212890625 258 33.212890625 263 38.212890625 268 c 6
 197.212890625 390 l 6
 206.212890625 397 216.212890625 399 226.212890625 396 c 4
 240.212890625 392 246.212890625 382 248.212890625 377 c 6
 248.212890625 377 248.212890625 377 325.212890625 192 c 4
 327.212890625 185 328.212890625 177 326.212890625 169 c 4
 321.212890625 152 303.212890625 141 286.212890625 146 c 4
 275.212890625 149 267.212890625 157 263.212890625 166 c 4
 203.212890625 310 l 5
 203.212890625 310 202.212890625 310 78.212890625 215 c 4
 70.212890625 209 60.212890625 207 49.212890625 210 c 4
 32.212890625 215 21.212890625 233 26.212890625 250 c 4
EndSplineSet
EndChar

StartChar: NameMe.53
Encoding: 53 -1 53
Width: 284
Flags: HW
LayerCount: 2
Fore
SplineSet
58.5029296875 -50.50390625 m 0
 40.01171875 -50.50390625 25 -35.4921875 25 -17.0009765625 c 0
 25 -11.6298828125 26.2666015625 -6.552734375 28.517578125 -2.05078125 c 2
 195.551757812 332.016601562 l 2
 201.048828125 343.01171875 212.416992188 350.569335938 225.537109375 350.569335938 c 0
 244.02734375 350.569335938 259.040039062 335.557617188 259.040039062 317.06640625 c 0
 259.040039062 311.6953125 257.7734375 306.6171875 255.483398438 302.05078125 c 2
 88.44921875 -32.0166015625 l 2
 82.9912109375 -42.947265625 71.6220703125 -50.50390625 58.5029296875 -50.50390625 c 0
EndSplineSet
EndChar

StartChar: NameMe.54
Encoding: 54 -1 54
Width: 117
Flags: HW
LayerCount: 2
Fore
SplineSet
25 367 m 2
 25 385.489257812 40.0107421875 400.5 58.5 400.5 c 0
 76.9892578125 400.5 92 385.489257812 92 367 c 2
 92 -67 l 2
 92 -85.4892578125 76.9892578125 -100.5 58.5 -100.5 c 0
 40.0107421875 -100.5 25 -85.4892578125 25 -67 c 2
 25 367 l 2
EndSplineSet
EndChar

StartChar: NameMe.55
Encoding: 55 -1 55
Width: 276
Flags: HW
LayerCount: 2
Fore
SplineSet
152 325 m 4
 169 332 189 323 196 306 c 4
 200 296 199 285 194 276 c 4
 116 141 116 141 116 141 c 5
 267 100 l 4
 277 98 285 91 289 81 c 4
 296 64 289 43 272 36 c 4
 265 33 257 34 250 35 c 4
 56 87 56 87 56 87 c 6
 51 88 40 93 34 107 c 4
 30 116 29 127 35 137 c 6
 135 310 l 6
 139 316 145 322 152 325 c 4
EndSplineSet
EndChar

StartChar: NameMe.56
Encoding: 56 -1 56
Width: 276
Flags: HW
LayerCount: 2
Fore
SplineSet
272 264 m 4
 289 257 296 236 289 219 c 4
 285 209 277 202 267 200 c 4
 116 160 116 159 116 159 c 5
 194 24 l 4
 199 15 200 4 196 -6 c 4
 189 -23 169 -32 152 -25 c 4
 145 -22 139 -16 135 -10 c 4
 35 164 35 163 35 163 c 6
 32 167 28 179 34 193 c 4
 38 202 45 210 56 213 c 6
 250 265 l 6
 257 266 265 267 272 264 c 4
EndSplineSet
EndChar

StartChar: NameMe.57
Encoding: 57 -1 57
Width: 276
Flags: HW
LayerCount: 2
Fore
SplineSet
4 264 m 4
 11 267 19 266 26 265 c 6
 220 213 l 6
 231 210 238 202 242 193 c 4
 248 179 244 167 241 163 c 6
 241 163 241 164 141 -10 c 4
 137 -16 131 -22 124 -25 c 4
 107 -32 87 -23 80 -6 c 4
 76 4 77 15 82 24 c 4
 161 160 l 5
 161 160 160 160 9 200 c 4
 -1 202 -9 209 -13 219 c 4
 -20 236 -13 257 4 264 c 4
EndSplineSet
EndChar

StartChar: NameMe.58
Encoding: 58 -1 58
Width: 276
Flags: HW
LayerCount: 2
Fore
SplineSet
124 325 m 4
 131 322 137 316 141 310 c 6
 241 137 l 6
 247 127 246 116 242 107 c 4
 236 93 225 88 220 87 c 6
 220 87 220 87 26 35 c 4
 19 34 11 33 4 36 c 4
 -13 43 -20 64 -13 81 c 4
 -9 91 -1 98 9 100 c 4
 161 140 l 5
 161 140 160 141 82 276 c 4
 77 285 76 296 80 306 c 4
 87 323 107 332 124 325 c 4
EndSplineSet
EndChar
